<?xml version="1.0" encoding="UTF-8" standalone="no"?>
<!DOCTYPE svg PUBLIC "-//W3C//DTD SVG 1.1//EN" "http://www.w3.org/Graphics/SVG/1.1/DTD/svg11.dtd">
<svg width="100%" height="100%" viewBox="0 0 171 171" version="1.1" xmlns="http://www.w3.org/2000/svg" xmlns:xlink="http://www.w3.org/1999/xlink" xml:space="preserve" xmlns:serif="http://www.serif.com/" style="fill-rule:evenodd;clip-rule:evenodd;stroke-linecap:round;stroke-linejoin:round;stroke-miterlimit:1.5;">
    <g transform="matrix(1,0,0,1,-221,0)">
        <rect id="アートボード2" x="221" y="0" width="171" height="171" style="fill:none;"/>
        <g id="アートボード21" serif:id="アートボード2">
            <circle cx="306.5" cy="85.5" r="85.5" style="fill:rgb(51,51,51);"/>
            <g transform="matrix(2.52196,0,0,2.52196,-466.480738,-130.127579)">
                <circle cx="306.5" cy="85.5" r="13.8" style="fill:rgb(185,40,27);"/>
            </g>
            <path d="M355.5,122.6C344.2,137.4 326.5,147 306.5,147C284.8,147 265.8,135.7 254.8,118.8" style="fill:none;stroke:rgb(237,233,219);stroke-width:2px;"/>
            <circle cx="306.5" cy="85.5" r="13.8" style="fill:rgb(237,233,219);"/>
            <path d="M345.3,113.9C336.5,125.9 322.4,133.6 306.5,133.6C289.3,133.6 274.1,124.5 265.6,110.9" style="fill:none;stroke:rgb(237,233,219);stroke-width:2px;"/>
            <path d="M363.5,131.4C350.1,148 329.5,158.7 306.5,158.7C281.3,158.7 259.1,146 245.9,126.6" style="fill:none;stroke:rgb(237,233,219);stroke-width:2px;"/>
        </g>
    </g>
</svg>
