<?xml version="1.0" encoding="UTF-8" standalone="no"?><!DOCTYPE svg PUBLIC "-//W3C//DTD SVG 1.1//EN" "http://www.w3.org/Graphics/SVG/1.1/DTD/svg11.dtd"><svg width="100%" height="100%" viewBox="0 0 500 159" version="1.1" xmlns="http://www.w3.org/2000/svg" xmlns:xlink="http://www.w3.org/1999/xlink" xml:space="preserve" xmlns:serif="http://www.serif.com/" style="fill-rule:evenodd;clip-rule:evenodd;"><path d="M250,2.083c68.883,0 131.158,8.846 176.146,23.092c22.508,7.125 40.571,15.571 52.958,24.846c12.429,9.304 18.812,19.175 18.812,29.146c0,9.971 -6.383,19.842 -18.812,29.146c-12.387,9.275 -30.45,17.721 -52.958,24.846c-44.988,14.246 -107.263,23.092 -176.146,23.092c-68.883,0 -131.163,-8.846 -176.146,-23.092c-22.508,-7.125 -40.571,-15.571 -52.958,-24.846c-12.429,-9.304 -18.812,-19.175 -18.812,-29.146c0,-9.971 6.383,-19.842 18.812,-29.146c12.388,-9.275 30.45,-17.721 52.958,-24.846c44.983,-14.246 107.263,-23.092 176.146,-23.092Z" style="fill:#b9281b;fill-rule:nonzero;stroke:#333;stroke-width:4.17px;"/></svg>