<?xml version="1.0" encoding="UTF-8" standalone="no"?>
<!DOCTYPE svg PUBLIC "-//W3C//DTD SVG 1.1//EN" "http://www.w3.org/Graphics/SVG/1.1/DTD/svg11.dtd">
<svg width="100%" height="100%" viewBox="0 0 418 166" version="1.1" xmlns="http://www.w3.org/2000/svg" xmlns:xlink="http://www.w3.org/1999/xlink" xml:space="preserve" xmlns:serif="http://www.serif.com/" style="fill-rule:evenodd;clip-rule:evenodd;stroke-linejoin:round;stroke-miterlimit:2;">
    <g id="アートボード1" transform="matrix(0.354191,0,0,0.064652,0,0)">
        <rect x="0" y="0" width="1179" height="2556" style="fill:none;"/>
        <g transform="matrix(2.823337,0,0,15.467531,-1065.730954,-455.530058)">
            <circle cx="589.5" cy="64.841" r="23.889" style="fill:rgb(240,196,0);"/>
        </g>
        <g transform="matrix(2.823337,0,0,15.467531,-1384.132057,-455.530058)">
            <circle cx="589.5" cy="64.841" r="23.889" style="fill:rgb(240,196,0);"/>
        </g>
        <g transform="matrix(2.823337,0,0,15.467531,-747.32985,-455.530058)">
            <circle cx="589.5" cy="64.841" r="23.889" style="fill:rgb(240,196,0);"/>
        </g>
        <g transform="matrix(2.823337,0,0,15.467531,-1229.663581,1044.386069)">
            <circle cx="589.5" cy="64.841" r="23.889" style="fill:rgb(240,196,0);"/>
        </g>
        <g transform="matrix(2.823337,0,0,15.467531,-1557.528836,1044.386069)">
            <circle cx="589.5" cy="64.841" r="23.889" style="fill:rgb(240,196,0);"/>
        </g>
        <g transform="matrix(2.823337,0,0,15.467531,-901.798326,1044.386069)">
            <circle cx="589.5" cy="64.841" r="23.889" style="fill:rgb(240,196,0);"/>
        </g>
        <g transform="matrix(2.823337,0,0,15.467531,-573.933071,1044.386069)">
            <circle cx="589.5" cy="64.841" r="23.889" style="fill:rgb(240,196,0);"/>
        </g>
    </g>
</svg>
